<?xml version="1.0" encoding="UTF-8" standalone="no"?>
<svg width="42px" height="75px" viewBox="0 0 42 75" version="1.1" xmlns="http://www.w3.org/2000/svg" xmlns:xlink="http://www.w3.org/1999/xlink">
    <!-- Generator: Sketch 3.8.3 (29802) - http://www.bohemiancoding.com/sketch -->
    <title>orange</title>
    <desc>Created with Sketch.</desc>
    <defs>
        <circle id="path-1" cx="21" cy="21" r="21"></circle>
        <mask id="mask-2" maskContentUnits="userSpaceOnUse" maskUnits="objectBoundingBox" x="0" y="0" width="42" height="42" fill="white">
            <use xlink:href="#path-1"></use>
        </mask>
    </defs>
    <g id="Page-1" stroke="none" stroke-width="1" fill="none" fill-rule="evenodd">
        <g id="orange">
            <use id="Oval-1" stroke="#172A40" mask="url(#mask-2)" stroke-width="4" fill="#F0A61E" xlink:href="#path-1"></use>
            <g id="Group-2" transform="translate(17.000000, 41.000000)" fill="#172A3F">
                <path d="M7.1563,30.4102 C7.1563,32.1312 5.7613,33.5252 4.0413,33.5252 C2.3203,33.5252 0.9253,32.1312 0.9253,30.4102 C0.9253,28.6892 2.3203,27.2952 4.0413,27.2952 C5.7613,27.2952 7.1563,28.6892 7.1563,30.4102" id="Fill-10"></path>
                <polygon id="Fill-12" points="3.165 29.1655 4.918 29.1655 4.918 0.4155 3.165 0.4155"></polygon>
            </g>
            <g id="Group" transform="translate(10.000000, 9.000000)" fill="#FEFEFE">
                <path d="M6.5472,5.1001 C6.5472,7.5821 8.5592,9.5941 11.0412,9.5941 C13.5232,9.5941 15.5342,7.5821 15.5342,5.1001 C15.5342,2.6181 13.5232,0.6061 11.0412,0.6061 C8.5592,0.6061 6.5472,2.6181 6.5472,5.1001" id="Fill-6"></path>
                <path d="M1.2933,16.4486 C3.8023,14.0476 7.2433,12.5646 11.0413,12.5646 C14.8393,12.5646 18.2793,14.0476 20.7883,16.4486 C20.8923,16.5486 20.9943,16.6506 21.0943,16.7536 L21.0943,21.4756 L0.9873,21.4756 L0.9873,16.7536 C1.0883,16.6506 1.1893,16.5486 1.2933,16.4486" id="Fill-8"></path>
            </g>
        </g>
    </g>
</svg>